<svg width="48" height="43" viewBox="0 0 48 43" fill="none" xmlns="http://www.w3.org/2000/svg">
<g clip-path="url(#clip0_993_486)">
<path d="M29.1416 9.7793H41.1395V13.6862H29.1416V9.7793Z" fill="white"/>
<path d="M29.1416 19.5469H41.1395V23.4537H29.1416V19.5469Z" fill="white"/>
<path d="M29.1416 29.314H41.1395V33.2208H29.1416V29.314Z" fill="white"/>
<path d="M44.5674 0.0126953H3.43187C2.52299 0.0137296 1.65161 0.425678 1.00893 1.15814C0.366264 1.89059 0.00481376 2.88372 0.00390625 3.91957V39.0814C0.00481376 40.1173 0.366264 41.1104 1.00893 41.8429C1.65161 42.5753 2.52299 42.9873 3.43187 42.9883H44.5674C45.4761 42.9868 46.3472 42.5747 46.9898 41.8423C47.6324 41.11 47.994 40.1171 47.9953 39.0814V3.91957C47.9944 2.88372 47.633 1.89059 46.9903 1.15814C46.3477 0.425678 45.4763 0.0137296 44.5674 0.0126953ZM3.43187 3.91957H22.2856V39.0814H3.43187V3.91957ZM25.7136 39.0814V3.91957H44.5674L44.5708 39.0814H25.7136Z" fill="white"/>
</g>
<defs>
<clipPath id="clip0_993_486">
<rect width="48" height="43" fill="white"/>
</clipPath>
</defs>
</svg>
